<svg id="Capa_1" enable-background="new 0 0 512 512" height="512" viewBox="0 0 512 512" width="512" xmlns="http://www.w3.org/2000/svg"><g><path d="m429.95 49.7h-79.726l-47.503-47.504c-1.426-1.425-3.329-2.17-5.268-2.18-.01-.004-215.403-.016-215.403-.016-13.27 0-24.067 10.796-24.067 24.066v18.134c0 4.143 3.358 7.5 7.5 7.5s7.5-3.357 7.5-7.5v-18.134c0-4.999 4.067-9.066 9.066-9.066h207.867v75.333c0 13.271 10.796 24.067 24.066 24.067h75.333v323.833c0 4.999-4.067 9.066-9.066 9.066h-298.199c-4.999 0-9.066-4.067-9.066-9.066v-366.033c0-4.143-3.358-7.5-7.5-7.5s-7.5 3.357-7.5 7.5v366.033c0 13.271 10.796 24.066 24.066 24.066h25.633v25.634c0 13.271 10.796 24.066 24.067 24.066h27.248c4.142 0 7.5-3.357 7.5-7.5s-3.358-7.5-7.5-7.5h-27.248c-5 0-9.067-4.067-9.067-9.066v-25.633h257.567c13.271 0 24.066-10.796 24.066-24.066 0 0-.012-331.36-.017-331.371-.01-1.938-.754-3.84-2.179-5.265l-36.896-36.898h64.726c4.999 0 9.066 4.067 9.066 9.066v414.167c0 4.999-4.067 9.066-9.066 9.066h-240.952c-4.142 0-7.5 3.357-7.5 7.5s3.358 7.5 7.5 7.5h240.952c13.271 0 24.066-10.796 24.066-24.066v-414.166c.001-13.271-10.795-24.067-24.066-24.067zm-115.967 49.7c-4.999 0-9.066-4.067-9.066-9.067v-64.727l73.793 73.794z"/><path d="m99.4 413.667c0 8.547 6.953 15.5 15.5 15.5h182.8c8.547 0 15.5-6.953 15.5-15.5v-17.134c0-8.547-6.953-15.5-15.5-15.5h-182.8c-8.547 0-15.5 6.953-15.5 15.5zm15-17.134c0-.275.224-.5.5-.5h182.8c.275 0 .5.225.5.5v17.134c0 .275-.225.5-.5.5h-182.8c-.276 0-.5-.225-.5-.5z"/><path d="m331.333 396.533v17.134c0 8.547 6.953 15.5 15.5 15.5h17.134c8.547 0 15.5-6.953 15.5-15.5v-17.134c0-8.547-6.953-15.5-15.5-15.5h-17.134c-8.547 0-15.5 6.953-15.5 15.5zm15 0c0-.275.225-.5.5-.5h17.134c.275 0 .5.225.5.5v17.134c0 .275-.225.5-.5.5h-17.134c-.275 0-.5-.225-.5-.5z"/><path d="m165.166 33.133h-50.266c-8.547 0-15.5 6.953-15.5 15.5v17.134c0 8.547 6.953 15.5 15.5 15.5h50.267c8.547 0 15.5-6.953 15.5-15.5v-17.134c-.001-8.547-6.954-15.5-15.501-15.5zm.5 32.634c0 .275-.224.5-.5.5h-50.266c-.276 0-.5-.225-.5-.5v-17.134c0-.275.224-.5.5-.5h50.267c.276 0 .5.225.5.5v17.134z"/><path d="m231.15 115.967c-68.08 0-123.467 55.387-123.467 123.467s55.387 123.466 123.467 123.466c68.081 0 123.467-55.387 123.467-123.467s-55.387-123.466-123.467-123.466zm81.781 194.641-12.855-12.856c11.828-13.957 19.502-31.538 21.094-50.819h18.184c-1.667 24.275-11.351 46.379-26.423 63.675zm-189.984-63.674h18.184c1.592 19.281 9.266 36.862 21.094 50.819l-12.855 12.856c-15.073-17.297-24.757-39.401-26.423-63.675zm26.422-78.675 12.855 12.855c-11.828 13.957-19.501 31.538-21.094 50.819h-18.184c1.667-24.273 11.351-46.378 26.423-63.674zm81.781 146.508c-41.539 0-75.333-33.794-75.333-75.333s33.794-75.334 75.333-75.334 75.334 33.795 75.334 75.334-33.796 75.333-75.334 75.333zm58.318-144.26c-13.957-11.828-31.538-19.501-50.819-21.094v-18.183c24.274 1.666 46.377 11.349 63.674 26.421zm-65.818-21.094c-19.281 1.592-36.861 9.266-50.819 21.094l-12.855-12.855c17.296-15.072 39.4-24.756 63.674-26.422zm-50.819 158.945c13.957 11.828 31.538 19.502 50.819 21.094v18.184c-24.274-1.666-46.378-11.35-63.674-26.422zm65.819 21.095c19.281-1.592 36.862-9.266 50.819-21.094l12.855 12.856c-17.296 15.072-39.4 24.756-63.674 26.422zm82.52-97.519c-1.592-19.281-9.266-36.862-21.094-50.819l12.855-12.855c15.073 17.296 24.756 39.4 26.422 63.674z"/><path d="m231.15 207.173c6.826 0 12.38 5.554 12.38 12.381 0 4.143 3.358 7.5 7.5 7.5s7.5-3.357 7.5-7.5c0-12.497-8.418-23.057-19.879-26.328v-3.492c0-4.143-3.358-7.5-7.5-7.5s-7.5 3.357-7.5 7.5v3.492c-11.461 3.27-19.88 13.831-19.88 26.328 0 15.098 12.283 27.38 27.38 27.38 6.826 0 12.38 5.554 12.38 12.38s-5.554 12.38-12.38 12.38-12.38-5.554-12.38-12.38c0-4.143-3.358-7.5-7.5-7.5s-7.5 3.357-7.5 7.5c0 12.497 8.419 23.057 19.88 26.327v3.492c0 4.143 3.358 7.5 7.5 7.5s7.5-3.357 7.5-7.5v-3.492c11.461-3.27 19.879-13.83 19.879-26.327 0-15.098-12.282-27.38-27.379-27.38-6.826 0-12.38-5.554-12.38-12.38-.001-6.827 5.553-12.381 12.379-12.381z"/></g></svg>