<?xml version="1.0" encoding="iso-8859-1"?>
<!-- Generator: Adobe Illustrator 19.0.0, SVG Export Plug-In . SVG Version: 6.00 Build 0)  -->
<svg version="1.1" id="Capa_1" xmlns="http://www.w3.org/2000/svg" xmlns:xlink="http://www.w3.org/1999/xlink" x="0px" y="0px"
	 viewBox="0 0 512.003 512.003" style="enable-background:new 0 0 512.003 512.003;" xml:space="preserve">
<g>
	<g>
		<path d="M440.372,120.243c-4.143,0-7.5,3.357-7.5,7.5v368.742c0,0.285-0.231,0.517-0.517,0.517H79.646
			c-0.285,0-0.517-0.231-0.517-0.517V15.519c0-0.285,0.231-0.517,0.517-0.517h265.048v72.661c0,8.556,6.961,15.517,15.517,15.517
			h80.161c3.033,0,5.769-1.827,6.929-4.63c1.161-2.803,0.52-6.028-1.625-8.174L357.498,2.198c-0.063-0.063-0.127-0.124-0.192-0.185
			c-0.001-0.002-0.003-0.003-0.004-0.004c-0.004-0.004-0.007-0.007-0.011-0.01c-0.003-0.003-0.006-0.006-0.009-0.008
			c-0.002-0.002-0.004-0.004-0.006-0.006c-0.004-0.004-0.009-0.008-0.014-0.013c0,0,0,0-0.001-0.001
			c-1.324-1.214-3.086-1.959-5.021-1.971c-0.001,0-0.001,0-0.001,0c-0.016,0-0.03,0-0.046,0H79.646
			C71.091,0.002,64.13,6.963,64.13,15.519v480.967c0,8.556,6.961,15.517,15.517,15.517h352.709c8.556,0,15.517-6.961,15.517-15.517
			V127.743C447.872,123.601,444.515,120.243,440.372,120.243z M359.694,25.608l62.571,62.571h-62.054
			c-0.285,0-0.517-0.231-0.517-0.517V25.608z"/>
	</g>
</g>
<g>
	<g>
		<path d="M159.291,90.404V64.257c5.555,1.815,9.049,5.479,9.049,8.876c0,4.143,3.357,7.5,7.5,7.5s7.5-3.357,7.5-7.5
			c0-11.98-10.095-21.739-24.049-24.345v-1.206c0-4.143-3.357-7.5-7.5-7.5s-7.5,3.357-7.5,7.5v1.206
			c-13.953,2.606-24.048,12.365-24.048,24.345c0,16.739,13.374,23.773,24.048,27.822v26.146c-5.555-1.815-9.048-5.479-9.048-8.876
			c0-4.143-3.357-7.5-7.5-7.5s-7.5,3.357-7.5,7.5c0,11.979,10.095,21.739,24.048,24.345v1.207c0,4.143,3.357,7.5,7.5,7.5
			s7.5-3.357,7.5-7.5v-1.207c13.954-2.606,24.049-12.365,24.049-24.345C183.34,101.484,169.965,94.451,159.291,90.404z
			 M144.291,84.594c-7.518-3.68-9.048-6.892-9.048-11.46c0-3.397,3.493-7.062,9.048-8.876V84.594z M159.291,127.101v-20.336
			c7.519,3.679,9.049,6.891,9.049,11.46C168.34,121.622,164.847,125.287,159.291,127.101z"/>
	</g>
</g>
<g>
	<g>
		<path d="M399.775,183.856c0-4.143-3.357-7.5-7.5-7.5H119.727c-4.143,0-7.5,3.357-7.5,7.5v144.291c0,4.143,3.357,7.5,7.5,7.5
			h272.549c4.143,0,7.5-3.357,7.5-7.5V183.856H399.775z M256.518,320.648H127.227v-33.097h129.291V320.648z M256.518,272.551
			H127.227v-33.098h129.291V272.551z M256.518,224.453H127.227v-33.097h129.291V224.453z M320.646,320.648h-49.129v-33.097h49.129
			V320.648z M320.647,272.551h-49.129v-33.098h49.129V272.551z M320.647,224.453h-49.129v-33.097h49.129V224.453z M384.775,320.648
			h-49.129v-33.097h49.129V320.648z M384.775,272.551h-49.129v-33.098h49.129V272.551z M384.775,224.453h-49.129v-33.097h49.129
			V224.453z"/>
	</g>
</g>
<g>
	<g>
		<path d="M256.001,360.728c-26.236,0-47.581,21.344-47.581,47.581c0,26.235,21.345,47.58,47.581,47.58
			c26.236,0,47.581-21.345,47.581-47.58C303.582,382.073,282.237,360.728,256.001,360.728z M256.001,440.889
			c-17.965,0-32.581-14.615-32.581-32.58s14.616-32.581,32.581-32.581c17.965,0,32.581,14.616,32.581,32.581
			C288.582,426.274,273.966,440.889,256.001,440.889z"/>
	</g>
</g>
<g>
	<g>
		<path d="M256.001,392.792c-8.556,0-15.517,6.961-15.517,15.517c0,8.556,6.961,15.516,15.517,15.516
			c8.556,0,15.517-6.96,15.517-15.516C271.518,399.753,264.557,392.792,256.001,392.792z"/>
	</g>
</g>
<g>
	<g>
		<path d="M183.855,384.776h-64.129c-4.143,0-7.5,3.357-7.5,7.5s3.357,7.5,7.5,7.5h64.129c4.143,0,7.5-3.357,7.5-7.5
			S187.998,384.776,183.855,384.776z"/>
	</g>
</g>
<g>
	<g>
		<path d="M183.855,416.841h-48.097c-4.143,0-7.5,3.357-7.5,7.5s3.357,7.5,7.5,7.5h48.097c4.143,0,7.5-3.357,7.5-7.5
			S187.998,416.841,183.855,416.841z"/>
	</g>
</g>
<g>
	<g>
		<path d="M384.259,376.76h-48.097c-8.556,0-15.516,6.961-15.516,15.517v32.064c0,8.556,6.96,15.516,15.516,15.516h48.097
			c8.556,0,15.517-6.96,15.517-15.516v-32.064C399.775,383.721,392.814,376.76,384.259,376.76z M384.775,424.341
			c0,0.284-0.231,0.516-0.517,0.516h-48.097c-0.284,0-0.516-0.231-0.516-0.516v-32.064c0-0.285,0.231-0.517,0.516-0.517h48.097
			c0.285,0,0.517,0.231,0.517,0.517V424.341z"/>
	</g>
</g>
<g>
	<g>
		<path d="M296.08,56.115h-16.029c-4.143,0-7.5,3.357-7.5,7.5s3.357,7.5,7.5,7.5h16.029c4.143,0,7.5-3.357,7.5-7.5
			S300.223,56.115,296.08,56.115z"/>
	</g>
</g>
<g>
	<g>
		<path d="M247.984,56.115H215.92c-4.143,0-7.5,3.357-7.5,7.5s3.357,7.5,7.5,7.5h32.064c4.143,0,7.5-3.357,7.5-7.5
			S252.127,56.115,247.984,56.115z"/>
	</g>
</g>
<g>
	<g>
		<path d="M320.13,88.18H215.92c-4.143,0-7.5,3.357-7.5,7.5s3.357,7.5,7.5,7.5h104.21c4.143,0,7.5-3.357,7.5-7.5
			S324.273,88.18,320.13,88.18z"/>
	</g>
</g>
<g>
	<g>
		<path d="M320.13,120.244h-16.032c-4.143,0-7.5,3.357-7.5,7.5s3.357,7.5,7.5,7.5h16.032c4.143,0,7.5-3.357,7.5-7.5
			S324.272,120.244,320.13,120.244z"/>
	</g>
</g>
<g>
	<g>
		<path d="M272.033,120.244H215.92c-4.143,0-7.5,3.357-7.5,7.5s3.357,7.5,7.5,7.5h56.113c4.143,0,7.5-3.357,7.5-7.5
			S276.176,120.244,272.033,120.244z"/>
	</g>
</g>
<g>
</g>
<g>
</g>
<g>
</g>
<g>
</g>
<g>
</g>
<g>
</g>
<g>
</g>
<g>
</g>
<g>
</g>
<g>
</g>
<g>
</g>
<g>
</g>
<g>
</g>
<g>
</g>
<g>
</g>
</svg>
