<svg id="Layer_5" enable-background="new 0 0 64 64" height="512" viewBox="0 0 64 64" width="512" xmlns="http://www.w3.org/2000/svg"><path d="m18 41c1.103 0 2 .897 2 2h2c0-1.859-1.28-3.411-3-3.858v-2.142h-2v2h-3v4c0 2.206 1.794 4 4 4 1.103 0 2 .897 2 2v2h-2c-1.103 0-2-.897-2-2h-2c0 1.859 1.28 3.411 3 3.858v2.142h2v-2h3v-4c0-2.206-1.794-4-4-4-1.103 0-2-.897-2-2v-2z"/><path d="m25 45h2v2h-2z"/><path d="m9 45h2v2h-2z"/><path d="m18 33c-7.168 0-13 5.832-13 13s5.832 13 13 13 13-5.832 13-13-5.832-13-13-13zm0 24c-6.065 0-11-4.935-11-11s4.935-11 11-11 11 4.935 11 11-4.935 11-11 11z"/><path d="m51 37.721 6.744-4.721-6.744-4.721v-27.279h-37.414l-12.586 12.586v49.414h50v-8h8v-2h-15v3.079l-7.256-5.079 7.256-5.079v3.079h15v-2h-8zm-46.586-24.721 8.586-8.586v8.586zm2.586 2h8v-8h30v14h-38zm26.256 36 12.744 8.921v-4.921h3v6h-46v-46h2v8h42v-18h-32v-2h34v23.879l-4-2.8v4.921h-12v2h14v-3.08l7.256 5.08-7.256 5.079v-3.079h-14v2h12v4.921l4-2.8v7.879h-3v-4.921z"/><path d="m29 29h2v2h-2z"/><path d="m61 53h2v2h-2z"/><path d="m5 25h20v2h-20z"/><path d="m5 29h20v2h-20z"/><path d="m41 17h2v2h-2z"/><path d="m37 17h2v2h-2z"/><path d="m33 17h2v2h-2z"/></svg>