<svg id="Layer_3" enable-background="new 0 0 64 64" height="512" viewBox="0 0 64 64" width="512" xmlns="http://www.w3.org/2000/svg"><g><path d="m62 55h-7v-49c0-2.757-2.243-5-5-5h-44c-2.757 0-5 2.243-5 5v2c0 .553.447 1 1 1h7v49c0 2.757 2.243 5 5 5h44c2.757 0 5-2.243 5-5v-2c0-.553-.447-1-1-1zm-59-49c0-1.654 1.346-3 3-3h40.002c-.629.836-1.002 1.875-1.002 3v1h-42zm14 50v2c0 1.654-1.346 3-3 3s-3-1.346-3-3v-49h35c.553 0 1-.447 1-1v-2c0-1.654 1.346-3 3-3s3 1.346 3 3v49h-35c-.553 0-1 .447-1 1zm44 2c0 1.654-1.346 3-3 3h-40.002c.629-.836 1.002-1.875 1.002-3v-1h42z"/><path d="m22 29c4.963 0 9-4.037 9-9 0-1.168-.221-2.304-.655-3.376l-1.854.752c.338.832.509 1.715.509 2.624 0 3.859-3.141 7-7 7s-7-3.141-7-7 3.141-7 7-7c1.188 0 2.36.303 3.39.874l.971-1.748c-1.326-.736-2.834-1.126-4.361-1.126-4.963 0-9 4.037-9 9s4.037 9 9 9z"/><path d="m18.707 19.293-1.414 1.414 4 4c.188.189.443.293.707.293.039 0 .078-.002.116-.007.305-.036.575-.208.735-.469l8-13-1.703-1.049-7.337 11.922z"/><path d="m13 31h2v2h-2z"/><path d="m17 31h34v2h-34z"/><path d="m49 35h2v2h-2z"/><path d="m13 35h34v2h-34z"/><path d="m13 39h2v2h-2z"/><path d="m17 39h34v2h-34z"/><path d="m49 43h2v2h-2z"/><path d="m13 43h34v2h-34z"/><path d="m13 47h2v2h-2z"/><path d="m17 47h34v2h-34z"/><path d="m49 51h2v2h-2z"/><path d="m13 51h34v2h-34z"/></g></svg>