<?xml version="1.0" encoding="iso-8859-1"?>
<!-- Generator: Adobe Illustrator 16.0.0, SVG Export Plug-In . SVG Version: 6.00 Build 0)  -->
<!DOCTYPE svg PUBLIC "-//W3C//DTD SVG 1.1//EN" "http://www.w3.org/Graphics/SVG/1.1/DTD/svg11.dtd">
<svg version="1.1" id="Capa_1" xmlns="http://www.w3.org/2000/svg" xmlns:xlink="http://www.w3.org/1999/xlink" x="0px" y="0px"
	 width="942px" height="942px" viewBox="0 0 942 942" style="enable-background:new 0 0 942 942;" xml:space="preserve">
<g>
	<g>
		<polygon points="504.1,247.05 504.1,212.55 501,212.55 488.9,212.55 488.9,247.05 501,247.05 		"/>
		<rect x="447.5" y="153.05" width="16.4" height="34.5"/>
		<path d="M441,321.05h60h172c27.6,0,50-22.4,50-50v-139.6c0-27.6-22.4-50-50-50H269c-27.6,0-50,22.4-50,50v139.6
			c0,27.6,22.4,50,50,50H441z M422.5,140.55c0-6.9,5.6-12.5,12.5-12.5h28.9v-16.1c0-6.9,5.6-12.5,12.5-12.5
			c6.899,0,12.5,5.6,12.5,12.5v16.1h24.6c6.9,0,12.5,5.6,12.5,12.5s-5.6,12.5-12.5,12.5h-24.6v34.5h27.6c6.9,0,12.5,5.6,12.5,12.5
			v59.5c0,6.9-5.6,12.5-12.5,12.5H501h-12.1v16.2c0,6.9-5.601,12.5-12.5,12.5c-6.9,0-12.5-5.6-12.5-12.5v-16.2H441h-4.6
			c-6.9,0-12.5-5.6-12.5-12.5s5.6-12.5,12.5-12.5h4.6h22.9v-34.5H441h-6c-6.9,0-12.5-5.6-12.5-12.5V140.55z"/>
		<path d="M777,625.149v-56.6c0-69.6-56.7-126.299-126.3-126.299H501v-91.2h-60v91.2H291.3c-69.6,0-126.3,56.7-126.3,126.299v56.6
			h60v-56.6c0-36.6,29.7-66.299,66.3-66.299h359.4c36.6,0,66.3,29.699,66.3,66.299v56.6H777z"/>
		<path d="M340,655.149H225h-60H50c-27.6,0-50,22.4-50,50v105.4c0,27.6,22.4,50,50,50h290c27.6,0,50-22.4,50-50v-105.4
			C390,677.55,367.6,655.149,340,655.149z"/>
		<path d="M892,655.149H777h-60H602c-27.6,0-50,22.4-50,50v105.4c0,27.6,22.4,50,50,50h290c27.6,0,50-22.4,50-50v-105.4
			C942,677.55,919.6,655.149,892,655.149z"/>
	</g>
</g>
<g>
</g>
<g>
</g>
<g>
</g>
<g>
</g>
<g>
</g>
<g>
</g>
<g>
</g>
<g>
</g>
<g>
</g>
<g>
</g>
<g>
</g>
<g>
</g>
<g>
</g>
<g>
</g>
<g>
</g>
</svg>
