<!DOCTYPE svg PUBLIC "-//W3C//DTD SVG 1.1//EN" "http://www.w3.org/Graphics/SVG/1.1/DTD/svg11.dtd">
<!-- Uploaded to: SVG Repo, www.svgrepo.com, Transformed by: SVG Repo Mixer Tools -->
<svg width="800px" height="800px" viewBox="0 0 24 24" xmlns="http://www.w3.org/2000/svg" id="left-alt-circle" class="icon glyph" fill="#FF8700">
<g id="SVGRepo_bgCarrier" stroke-width="0"/>
<g id="SVGRepo_tracerCarrier" stroke-linecap="round" stroke-linejoin="round"/>
<g id="SVGRepo_iconCarrier">
<path d="M12,11h4v2H12a1,1,0,0,0-1,1v.58L8.42,12,11,9.4V10A1,1,0,0,0,12,11Zm10,1A10,10,0,1,1,12,2,10,10,0,0,1,22,12Zm-4-1a2,2,0,0,0-2-2H13a2,2,0,0,0-1.19-1.43A2,2,0,0,0,9.58,8L7,10.58a2,2,0,0,0,0,2.84L9.58,16a2,2,0,0,0,1.42.59,1.9,1.9,0,0,0,.77-.16A2,2,0,0,0,13,15h3a2,2,0,0,0,2-2Z" style="fill:#FF8700"/>
</g>
</svg>