<!DOCTYPE svg PUBLIC "-//W3C//DTD SVG 1.1//EN" "http://www.w3.org/Graphics/SVG/1.1/DTD/svg11.dtd">
<!-- Uploaded to: SVG Repo, www.svgrepo.com, Transformed by: SVG Repo Mixer Tools -->
<svg fill="#FFFFFF" width="800px" height="800px" viewBox="0 0 24 24" id="download-2" xmlns="http://www.w3.org/2000/svg" class="icon line" stroke="#FFFFFF">
<g id="SVGRepo_bgCarrier" stroke-width="0"/>
<g id="SVGRepo_tracerCarrier" stroke-linecap="round" stroke-linejoin="round"/>
<g id="SVGRepo_iconCarrier">
<path id="primary" d="M5.65,14.56,7,13a1,1,0,0,1,1.41-.11L10,14.34V7h4v7.34l1.64-1.41a1,1,0,0,1,1.41.11l1.3,1.52A1,1,0,0,1,18.24,16l-5.59,4.79a1,1,0,0,1-1.3,0L5.76,16A1,1,0,0,1,5.65,14.56ZM4,7V4A1,1,0,0,1,5,3H19a1,1,0,0,1,1,1V7" style="fill: none; stroke: #FFFFFF; stroke-linecap: round; stroke-linejoin: round; stroke-width: 1.5;"/>
</g>
</svg>