<!DOCTYPE svg PUBLIC "-//W3C//DTD SVG 1.1//EN" "http://www.w3.org/Graphics/SVG/1.1/DTD/svg11.dtd">
<!-- Uploaded to: SVG Repo, www.svgrepo.com, Transformed by: SVG Repo Mixer Tools -->
<svg fill="#FFFFFF" width="800px" height="800px" viewBox="-2.4 -2.4 28.80 28.80" id="left-alt" data-name="Flat Color" xmlns="http://www.w3.org/2000/svg" class="icon flat-color" stroke="#FFFFFF" stroke-width="1.152" transform="matrix(1, 0, 0, 1, 0, 0)rotate(0)">
<g id="SVGRepo_bgCarrier" stroke-width="0">
<rect x="-2.4" y="-2.4" width="28.80" height="28.80" rx="14.4" fill="#002357" strokewidth="0"/>
</g>
<g id="SVGRepo_tracerCarrier" stroke-linecap="round" stroke-linejoin="round"/>
<g id="SVGRepo_iconCarrier">
<path id="primary" d="M19.87,8.13H13.74l.43-.66a2,2,0,0,0-.46-2.7L11.25,2.92a2,2,0,0,0-2.78.38L2.55,10.91a2,2,0,0,0,0,2.45L8.47,21a2,2,0,0,0,1.59.77,1.94,1.94,0,0,0,1.19-.4l2.46-1.84a2,2,0,0,0,.46-2.71l-.43-.66h6.13a2,2,0,0,0,2-2v-4A2,2,0,0,0,19.87,8.13Z" style="fill: #FF8700;"/>
</g>
</svg>