<svg width="47" height="45" viewBox="0 0 47 45" fill="none" xmlns="http://www.w3.org/2000/svg">
<rect x="0.884766" width="45.2306" height="44.8464" rx="22.4232" fill="#002357"/>
<path fill-rule="evenodd" clip-rule="evenodd" d="M25.8559 42.2286C35.8529 41.0721 43.6114 32.6461 43.6114 22.4232C43.6114 12.5964 36.4423 4.42966 27.0067 2.78456L24.443 5.32643L18.9219 10.8007L15.713 13.9823L13.5075 16.1691L13.4985 16.178C12.2875 17.3824 11.6082 19.0142 11.6098 20.7149C11.6115 22.4156 12.2941 24.0461 13.5075 25.2482L13.5634 25.3035C14.2695 25.9892 15.1252 26.5045 16.0644 26.8096C17.1125 27.1505 18.231 27.2207 19.3141 27.0134C20.534 26.7804 21.6601 26.2034 22.5576 25.3517L22.6621 25.2482L24.8676 23.0613L26.3492 21.5924C26.833 21.1112 27.4449 20.7763 28.1134 20.6269C28.2011 20.607 28.2893 20.5909 28.3776 20.5776C28.926 20.4956 29.4861 20.5394 30.0147 20.7057C30.5433 20.8721 31.0264 21.1564 31.4267 21.537L31.4826 21.5924C32.1619 22.2659 32.5443 23.179 32.546 24.1315C32.5478 25.084 32.1688 25.9984 31.4921 26.6745C31.4887 26.6778 31.4859 26.6811 31.4826 26.6839C31.4792 26.6866 31.4764 26.69 31.4731 26.6933L27.6899 30.4427L27.0961 31.032L24.8693 33.2393L21.6956 36.3883L19.0822 38.98C18.8197 38.9113 18.559 38.8375 18.3001 38.7584C16.3404 38.1443 14.5073 37.1876 12.8874 35.9335C10.9923 34.4688 9.42493 32.6295 8.28467 30.5324C6.93164 28.0404 6.22587 25.2534 6.23108 22.4232C6.23082 21.5745 6.29375 20.727 6.41934 19.8875C6.86842 16.8933 8.11108 14.0709 10.0204 11.7087C11.9297 9.34659 14.4372 7.5293 17.2867 6.44255L21.1442 2.62061C11.1472 3.77439 3.38867 12.2004 3.38867 22.4232C3.38867 32.2501 10.5578 40.4168 19.994 42.0619L22.557 39.5201L28.081 34.0458L31.2898 30.8642L33.4954 28.6774L33.5043 28.6685C34.715 27.4638 35.3938 25.8317 35.3916 24.131C35.3894 22.4303 34.7064 20.8 33.4926 19.5983L33.4367 19.5429C32.7306 18.8573 31.8749 18.342 30.9357 18.0369C29.8876 17.696 28.7691 17.6258 27.686 17.833C26.7335 18.0145 25.8347 18.4068 25.0564 18.9807C24.8411 19.1394 24.6359 19.311 24.4419 19.4948L24.338 19.5983L22.1325 21.7851L20.6509 23.2541C20.1671 23.7353 19.5552 24.0702 18.8867 24.2196C18.799 24.2395 18.7113 24.2556 18.6225 24.2689C18.0741 24.3509 17.514 24.3071 16.9854 24.1407C16.4568 23.9744 15.9737 23.69 15.5734 23.3095L15.5175 23.2541C14.8382 22.5805 14.4558 21.6675 14.454 20.715C14.4523 19.7625 14.8312 18.8481 15.508 18.172L15.5175 18.1626L15.527 18.1532L19.3102 14.4038L19.904 13.8145L22.1308 11.6072L25.0201 8.7418L27.9178 5.86815C28.1785 5.93683 28.4392 6.01069 28.7 6.08971C35.6948 8.27708 40.769 14.7627 40.769 22.4232C40.7693 23.2719 40.7063 24.1195 40.5807 24.959C40.4734 25.678 40.3194 26.3894 40.1199 27.0888C39.387 29.6448 38.0656 31.9972 36.2597 33.9607C34.4539 35.9243 32.2129 37.4453 29.7133 38.4039L25.8559 42.2286Z" fill="white"/>
<path fill-rule="evenodd" clip-rule="evenodd" d="M24.7519 42.3255L28.2049 38.9018L30.1971 36.9266L36.007 31.166C37.8558 29.3361 38.9088 26.8614 38.9405 24.2715C38.945 23.9502 38.9336 23.6293 38.9064 23.3088C38.712 20.9662 37.6835 18.7686 36.0048 17.109L35.9489 17.0536C35.2629 16.3829 34.483 15.8138 33.6333 15.3636C33.4099 15.2462 33.1845 15.1374 32.9574 15.0374C31.9409 14.5943 30.8573 14.3218 29.7507 14.2309C29.4278 14.2043 29.1042 14.193 28.7798 14.1971C27.8423 14.2098 26.9111 14.3523 26.0133 14.6203C25.0691 14.9019 24.1724 15.3212 23.3525 15.8643C23.1555 15.9951 22.9618 16.1335 22.7715 16.2798C22.4377 16.5367 22.1205 16.8142 21.8218 17.1106L20.7045 18.2184L17.6275 21.2693C17.4954 21.4003 17.3907 21.5557 17.3192 21.7268C17.2477 21.8979 17.2109 22.0812 17.2109 22.2664C17.2109 22.4515 17.2477 22.6349 17.3192 22.806C17.3907 22.977 17.4954 23.1325 17.6275 23.2634C17.7595 23.3943 17.9163 23.4982 18.0888 23.5691C18.2614 23.6399 18.4463 23.6764 18.633 23.6764C18.8198 23.6764 19.0047 23.6399 19.1772 23.5691C19.3498 23.4982 19.5065 23.3943 19.6386 23.2634L21.6743 21.245L23.8346 19.0997C23.9676 18.9679 24.1041 18.8425 24.2441 18.7236C24.4341 18.5622 24.6323 18.4106 24.8379 18.2694C25.6268 17.7297 26.517 17.353 27.4558 17.1616C28.5397 16.9398 29.6605 16.968 30.7317 17.2441C31.9415 17.5562 33.0476 18.1775 33.9395 19.046C33.9585 19.0637 33.9769 19.082 33.9953 19.1014C34.6629 19.7626 35.1924 20.5478 35.5537 21.4121C35.915 22.2763 36.101 23.2027 36.101 24.1383C36.101 25.0739 35.915 26.0003 35.5537 26.8645C35.1924 27.7288 34.6629 28.514 33.9953 29.1752L29.049 34.0789L23.5368 39.5449L20.8654 42.1936C21.7387 42.307 22.6186 42.3638 23.4994 42.3637C23.9199 42.3637 24.3374 42.3509 24.7519 42.3255Z" fill="white"/>
<path fill-rule="evenodd" clip-rule="evenodd" d="M20.9867 30.2261C21.9309 29.9444 22.8277 29.5252 23.6475 28.982C23.8445 28.8513 24.0382 28.7128 24.2285 28.5666C24.5624 28.3097 24.8796 28.0322 25.1782 27.7357L26.2955 26.6279L29.3726 23.577C29.5046 23.4461 29.6094 23.2906 29.6808 23.1196C29.7523 22.9485 29.7891 22.7651 29.7891 22.58C29.7891 22.3948 29.7523 22.2115 29.6808 22.0404C29.6094 21.8693 29.5046 21.7139 29.3726 21.583C29.2405 21.452 29.0837 21.3482 28.9112 21.2773C28.7387 21.2064 28.5537 21.17 28.367 21.17C28.1802 21.17 27.9953 21.2064 27.8228 21.2773C27.6503 21.3482 27.4935 21.452 27.3614 21.583L25.3257 23.6014L23.1654 25.7467C23.0325 25.8785 22.896 26.0039 22.7559 26.1228C22.5659 26.2841 22.3677 26.4357 22.1621 26.577C21.3733 27.1166 20.483 27.4934 19.5442 27.6848C18.4603 27.9066 17.3395 27.8783 16.2683 27.6022C15.0585 27.2901 13.9525 26.6688 13.0606 25.8004C13.0416 25.7827 13.0231 25.7644 13.0047 25.745C12.3372 25.0838 11.8076 24.2986 11.4463 23.4343C11.085 22.57 10.899 21.6436 10.899 20.7081C10.899 19.7725 11.085 18.8461 11.4463 17.9818C11.8076 17.1176 12.3372 16.3324 13.0047 15.6711L17.951 10.7674L23.4632 5.30149L26.1358 2.65216C25.262 2.53903 24.3818 2.48241 23.5006 2.48267C23.0801 2.48267 22.6626 2.49541 22.2481 2.52089L18.7951 5.94457L16.703 8.01839L10.9952 13.6776C9.14494 15.5078 8.09112 17.9837 8.05954 20.5748C8.05507 20.8961 8.06643 21.217 8.09362 21.5375C8.28798 23.8801 9.31651 26.0778 10.9952 27.7374L11.0511 27.7928C11.7371 28.4634 12.517 29.0326 13.3667 29.4827C13.5902 29.6002 13.8155 29.7089 14.0427 29.809C15.0591 30.2521 16.1428 30.5246 17.2493 30.6155C17.5722 30.6421 17.8959 30.6533 18.2203 30.6493C19.1578 30.6365 20.0889 30.4941 20.9867 30.2261Z" fill="white"/>
<defs>
<linearGradient id="paint0_linear_307_7447" x1="31.2993" y1="36.4807" x2="25.8908" y2="20.2151" gradientUnits="userSpaceOnUse">
<stop stop-color="#F6871F"/>
<stop offset="1" stop-color="#FBAB18"/>
</linearGradient>
<linearGradient id="paint1_linear_307_7447" x1="15.7097" y1="8.73569" x2="21.2872" y2="24.3391" gradientUnits="userSpaceOnUse">
<stop stop-color="#F6871F"/>
<stop offset="1" stop-color="#FBAB18"/>
</linearGradient>
</defs>
</svg>
