<svg width="21" height="21" viewBox="0 0 21 21" fill="none" xmlns="http://www.w3.org/2000/svg">
<path d="M12.4375 2.75V7.27083H16.9583L12.4375 2.75Z" fill="#FFFFFF"/>
<path d="M16.3124 7.53831V10.5C16.3124 10.8566 16.6016 11.1458 16.9583 11.1458C17.3149 11.1458 17.6041 10.8566 17.6041 10.5V7.27079C17.6041 7.09951 17.536 6.93524 17.4149 6.81412L12.8941 2.29329C12.773 2.17217 12.6087 2.10413 12.4374 2.10413L4.68742 2.10413C4.15239 2.10413 3.77407 2.48245 3.77407 2.48245C3.39575 2.86077 3.39575 3.39579 3.39575 3.39579V10.5C3.39575 10.8566 3.6849 11.1458 4.04159 11.1458C4.39827 11.1458 4.68742 10.8566 4.68742 10.5V3.39579H12.1699L16.3124 7.53831Z" fill="#002357"/>
<path d="M12.4376 7.91663H16.9584C17.3151 7.91663 17.6042 7.62748 17.6042 7.27079C17.6042 6.91411 17.3151 6.62496 16.9584 6.62496H13.0834V2.74996C13.0834 2.39328 12.7943 2.10413 12.4376 2.10413C12.0809 2.10413 11.7917 2.39328 11.7917 2.74996V7.27079C11.7917 7.62748 12.0809 7.91663 12.4376 7.91663Z" fill="#002357"/>
<path fill-rule="evenodd" clip-rule="evenodd" d="M3.39575 17.6042V13.7292C3.39575 13.3725 3.6849 13.0834 4.04159 13.0834H5.33325C5.33325 13.0834 6.13579 13.0834 6.70327 13.6509C6.70327 13.6509 7.27075 14.2183 7.27075 15.0209C7.27075 15.0209 7.27075 15.8234 6.70327 16.3909C6.70327 16.3909 6.13579 16.9584 5.33325 16.9584H4.68742V17.6042C4.68742 17.9609 4.39827 18.25 4.04159 18.25C3.6849 18.25 3.39575 17.9609 3.39575 17.6042ZM5.33325 15.6667H4.68742V14.375H5.33325C5.33325 14.375 5.60076 14.375 5.78993 14.5642C5.78993 14.5642 5.97909 14.7534 5.97909 15.0209C5.97909 15.0209 5.97909 15.2884 5.78993 15.4775C5.78993 15.4775 5.60076 15.6667 5.33325 15.6667Z" fill="#002357"/>
<path d="M14.698 13.7292V17.6042C14.698 17.9609 14.9871 18.25 15.3438 18.25C15.7005 18.25 15.9897 17.9609 15.9897 17.6042V14.375H17.6042C17.9609 14.375 18.2501 14.0859 18.2501 13.7292C18.2501 13.3725 17.9609 13.0834 17.6042 13.0834H15.3438C14.9871 13.0834 14.698 13.3725 14.698 13.7292Z" fill="#002357"/>
<path d="M17.2813 15.3438H15.3438C14.9871 15.3438 14.698 15.6329 14.698 15.9896C14.698 16.3463 14.9871 16.6354 15.3438 16.6354H17.2813C17.638 16.6354 17.9272 16.3463 17.9272 15.9896C17.9272 15.6329 17.638 15.3438 17.2813 15.3438Z" fill="#002357"/>
<path fill-rule="evenodd" clip-rule="evenodd" d="M9.36971 18.25C9.01303 18.25 8.72388 17.9609 8.72388 17.6042V13.7292C8.72388 13.3725 9.01303 13.0834 9.36971 13.0834H10.4999C10.4999 13.0834 11.57 13.0834 12.3266 13.84C12.3266 13.84 13.0833 14.5967 13.0833 15.6667C13.0833 15.6667 13.0833 16.7368 12.3266 17.4934C12.3266 17.4934 11.57 18.25 10.4999 18.25H9.36971ZM10.4999 16.9584H10.0155V14.375H10.4999C10.4999 14.375 11.0349 14.375 11.4133 14.7534C11.4133 14.7534 11.7916 15.1317 11.7916 15.6667C11.7916 15.6667 11.7916 16.2017 11.4133 16.5801C11.4133 16.5801 11.0349 16.9584 10.4999 16.9584Z" fill="#002357"/>
</svg>
