<!DOCTYPE svg PUBLIC "-//W3C//DTD SVG 1.1//EN" "http://www.w3.org/Graphics/SVG/1.1/DTD/svg11.dtd">
<!-- Uploaded to: SVG Repo, www.svgrepo.com, Transformed by: SVG Repo Mixer Tools -->
<svg version="1.1" id="Icons" xmlns="http://www.w3.org/2000/svg" xmlns:xlink="http://www.w3.org/1999/xlink" viewBox="0 0 32 32" xml:space="preserve" width="800px" height="800px" fill="#000000" transform="rotate(0)matrix(-1, 0, 0, 1, 0, 0)">

<g id="SVGRepo_bgCarrier" stroke-width="0"/>

<g id="SVGRepo_tracerCarrier" stroke-linecap="round" stroke-linejoin="round"/>

<g id="SVGRepo_iconCarrier"> <style type="text/css"> .st0{fill:none;stroke:grey;stroke-width:2;stroke-linecap:round;stroke-linejoin:round;stroke-miterlimit:10;} .st1{fill:none;stroke:#000000;stroke-width:2;stroke-linecap:round;stroke-linejoin:round;stroke-miterlimit:10;stroke-dasharray:3;} .st2{fill:none;stroke:#000000;stroke-width:2;stroke-linejoin:round;stroke-miterlimit:10;} .st3{fill:none;} </style> <path class="st0" d="M15,13h-3.5C9.6,13,8,14.6,8,16.5v0C8,17.9,6.9,19,5.5,19h0C4.1,19,3,17.9,3,16.5V16c0-3.3,2.7-6,6-6h0h2"/> <path class="st0" d="M11,8v7.9l8.7,8.7c0.8,0.8,2,0.8,2.8,0l5-5c0.8-0.8,0.8-2,0-2.8L18.9,8L11,8z"/> <rect y="-360" class="st3" width="536" height="680"/> </g>

</svg>