<svg width="31" height="31" viewBox="0 0 31 31" fill="none" xmlns="http://www.w3.org/2000/svg">
<rect width="31" height="31" rx="10.3333" fill="#E5ECF6"/>
<path fill-rule="evenodd" clip-rule="evenodd" d="M23.6473 12.0821H7.35242C6.47806 12.0821 5.76267 12.7975 5.76267 13.6718V19.2359C5.76267 20.1103 6.47806 20.8257 7.35242 20.8257H9.69729V23.1308C9.69729 24.0052 10.4127 24.7206 11.287 24.7206H19.7524C20.6268 24.7206 21.3422 24.0052 21.3422 23.1308V20.8257H23.687C24.5614 20.8257 25.2768 20.1103 25.2768 19.2359V13.6718C25.237 12.7975 24.5216 12.0821 23.6473 12.0821ZM8.46519 16.1757C7.78954 16.1757 7.27288 15.6591 7.27288 14.9834C7.27288 14.3078 7.78954 13.7911 8.46519 13.7911C9.14083 13.7911 9.65749 14.3078 9.65749 14.9834C9.65749 15.6591 9.14083 16.1757 8.46519 16.1757ZM19.4343 22.2962C19.4343 22.6142 19.1561 22.8924 18.8382 22.8924H12.0818C11.7638 22.8924 11.4856 22.6142 11.4856 22.2962V18.4014C11.4856 18.0834 11.7638 17.8052 12.0818 17.8052H18.8382C19.1561 17.8052 19.4343 18.0834 19.4343 18.4014V22.2962ZM21.2627 9.57825C21.2627 9.8962 20.9845 10.1744 20.6665 10.1744H10.2537C9.93575 10.1744 9.65754 9.8962 9.65754 9.57825V6.87568C9.65754 6.55774 9.93575 6.27953 10.2537 6.27953H20.6665C20.9845 6.27953 21.2627 6.55774 21.2627 6.87568V9.57825Z" fill="#080707"/>
</svg>
