<?xml version="1.0" encoding="utf-8"?>

<!-- Uploaded to: SVG Repo, www.svgrepo.com, Generator: SVG Repo Mixer Tools -->
<svg fill="#FFFFFF" height="800px" width="800px" version="1.1" id="Icons" xmlns="http://www.w3.org/2000/svg" xmlns:xlink="http://www.w3.org/1999/xlink"
	 viewBox="0 0 32 32" xml:space="preserve">
<g>
	<path d="M15.3,27.1c-0.7-0.4-1.3-0.9-1.8-1.5c-0.4-0.4-1-0.5-1.4-0.1c-0.4,0.4-0.5,1-0.1,1.4c0.7,0.8,1.4,1.5,2.3,2
		c0.4,0.3,0.7,0.7,0.7,1.1c0,0.6,0.4,1,1,1s1-0.4,1-1C17,28.8,16.4,27.7,15.3,27.1z"/>
	<path d="M5,5v17c0,1.7,1.3,3,3,3h1v-2V4V2H8C6.3,2,5,3.3,5,5z"/>
	<path d="M21,12.5V5c0-1.7-1.3-3-3-3h-7v1v1v19v1v1h6.8c0.1,0.9,0.5,1.8,1.2,2.5c0.2,0.2,0.5,0.3,0.7,0.3s0.5-0.1,0.7-0.3
		c0.4-0.4,0.4-1,0-1.4c-0.6-0.6-0.8-1.5-0.5-2.3c0.1-0.4,0-0.7-0.2-1l-3.3-3.3c-1-1-1.1-2.7-0.3-4l3.2,3.2l1,1c0.4,0.4,1,0.4,1.4,0
		s0.4-1,0-1.4L21,17.6v-2.8c1.9,1.3,3,3.4,3,5.7V30c0,0.6,0.4,1,1,1s1-0.4,1-1v-9.5C26,17.1,24.1,14,21,12.5z M17,10
		c0,0.6-0.4,1-1,1s-1-0.4-1-1V6c0-0.6,0.4-1,1-1s1,0.4,1,1V10z"/>
</g>
</svg>