<svg width="17" height="16" viewBox="0 0 17 16" fill="none" xmlns="http://www.w3.org/2000/svg">
<rect x="0.5" width="16" height="16" rx="8" fill="#E6717C"/>
<mask id="mask0_368_6954" style="mask-type:luminance" maskUnits="userSpaceOnUse" x="0" y="0" width="17" height="16">
<rect x="0.5" width="16" height="16" rx="8" fill="white"/>
</mask>
<g mask="url(#mask0_368_6954)">
<path fill-rule="evenodd" clip-rule="evenodd" d="M9.8998 4.80001H12.3998C12.5598 4.80001 12.6998 4.94001 12.6998 5.10001V5.70001C12.6998 5.86001 12.5598 6.00001 12.3998 6.00001H4.5998C4.4398 6.00001 4.2998 5.86001 4.2998 5.70001V5.10001C4.2998 4.94001 4.4398 4.80001 4.5998 4.80001H7.0998V4.00001C7.0998 3.56001 7.4598 3.20001 7.8998 3.20001H9.0998C9.5398 3.20001 9.8998 3.56001 9.8998 4.00001V4.80001ZM8.0998 4.00001C7.9798 4.00001 7.8998 4.08001 7.8998 4.20001V4.80001H9.0998V4.20001C9.0998 4.08001 9.0198 4.00001 8.89981 4.00001H8.0998Z" fill="white"/>
<path fill-rule="evenodd" clip-rule="evenodd" d="M11.5996 6.79999H5.39961C5.23961 6.79999 5.09961 6.93999 5.09961 7.09999V11.8C5.09961 12.36 5.53961 12.8 6.09961 12.8H10.8996C11.4596 12.8 11.8996 12.36 11.8996 11.8V7.09999C11.8996 6.93999 11.7596 6.79999 11.5996 6.79999ZM7.89961 11.2C7.89961 11.32 7.81961 11.4 7.69961 11.4H7.29961C7.17961 11.4 7.09961 11.32 7.09961 11.2V8.39999C7.09961 8.27999 7.17961 8.19999 7.29961 8.19999H7.69961C7.81961 8.19999 7.89961 8.27999 7.89961 8.39999V11.2ZM9.69961 11.4C9.81961 11.4 9.89961 11.32 9.89961 11.2V8.39999C9.89961 8.27999 9.81961 8.19999 9.69961 8.19999H9.29961C9.17961 8.19999 9.09961 8.27999 9.09961 8.39999V11.2C9.09961 11.32 9.17961 11.4 9.29961 11.4H9.69961Z" fill="white"/>
</g>
</svg>
