<svg width="16" height="16" viewBox="0 0 16 16" fill="none" xmlns="http://www.w3.org/2000/svg">
<path opacity="0.4" d="M3.60645 1.33337H12.3865C13.1198 1.33337 13.7198 1.94003 13.7198 2.68003V4.16003C13.7198 4.70003 13.3865 5.37337 13.0531 5.70671L10.1931 8.2667C9.79312 8.6067 9.52645 9.28004 9.52645 9.81338V12.7067C9.52645 13.1134 9.25979 13.6467 8.92645 13.8534L7.99979 14.4667C7.13312 15.0067 5.93979 14.4 5.93979 13.32V9.75338C5.93979 9.28004 5.67312 8.67338 5.40645 8.34005L2.87979 5.64671C2.54645 5.30671 2.27979 4.70672 2.27979 4.30005V2.75338C2.27979 1.94004 2.87978 1.33337 3.60645 1.33337Z" fill="#414A53"/>
<path d="M11.2531 6.66663C9.50643 6.66663 8.08643 8.08663 8.08643 9.83329C8.08643 10.4266 8.25309 10.9866 8.54643 11.4666C9.09309 12.3866 10.0998 13 11.2531 13C12.4064 13 13.4131 12.38 13.9598 11.4666C14.2531 10.9933 14.4198 10.4266 14.4198 9.83329C14.4198 8.08663 13.0064 6.66663 11.2531 6.66663ZM12.4531 11.0133C12.3531 11.1133 12.2264 11.16 12.0998 11.16C11.9731 11.16 11.8464 11.1133 11.7464 11.0133L11.2664 10.5333L10.7664 11.0333C10.6664 11.1333 10.5398 11.18 10.4131 11.18C10.2864 11.18 10.1598 11.1333 10.0598 11.0333C9.86643 10.84 9.86643 10.52 10.0598 10.3266L10.5598 9.82662L10.0798 9.33997C9.88643 9.14663 9.88643 8.82663 10.0798 8.6333C10.2731 8.43997 10.5931 8.43997 10.7864 8.6333L11.2664 9.1133L11.7331 8.64663C11.9264 8.45329 12.2464 8.45329 12.4398 8.64663C12.6331 8.83996 12.6331 9.15996 12.4398 9.35329L11.9731 9.81997L12.4531 10.3066C12.6531 10.5 12.6531 10.82 12.4531 11.0133Z" fill="#414A53"/>
</svg>
