<svg width="5" height="5" viewBox="0 0 16 16" fill="none" xmlns="http://www.w3.org/2000/svg">
<path opacity="0.4" d="M13.7334 2.73336V4.20002C13.7334 4.73336 13.4001 5.40002 13.0667 5.73336L10.2001 8.26669C9.80007 8.60002 9.5334 9.26669 9.5334 9.80002V12.6667C9.5334 13.0667 9.26673 13.6 8.9334 13.8L8.00007 14.4C7.1334 14.9334 5.9334 14.3334 5.9334 13.2667V9.73336C5.9334 9.26669 5.66673 8.66669 5.40007 8.33336L4.7334 7.63336L8.6134 1.40002H12.4001C13.1334 1.40002 13.7334 2.00002 13.7334 2.73336Z" fill="#414A53"/>
<path d="M7.53327 1.40002L4.07993 6.94002L2.8666 5.66669C2.53327 5.33336 2.2666 4.73336 2.2666 4.33336V2.80002C2.2666 2.00002 2.8666 1.40002 3.59993 1.40002H7.53327Z" fill="#414A53"/>
</svg>
