<svg width="15" height="17" viewBox="0 0 15 17" fill="#FFFFFF" xmlns="http://www.w3.org/2000/svg">
<path d="M6.85408 16.25H9.1145C9.47119 16.25 9.76033 15.9608 9.76033 15.6041C9.76033 15.2474 9.47119 14.9583 9.1145 14.9583H7.49992V11.7291C7.49992 11.3724 7.21077 11.0833 6.85408 11.0833C6.4974 11.0833 6.20825 11.3724 6.20825 11.7291V15.6041C6.20825 15.9608 6.4974 16.25 6.85408 16.25Z" fill="#002357"/>
<path d="M3.75392 15.9914C3.85669 16.1284 4.00985 16.2192 4.17942 16.2435C4.20967 16.2478 4.24019 16.25 4.27075 16.25L4.27297 16.25C4.41195 16.2495 4.54707 16.2042 4.65825 16.1208C4.82088 15.9988 4.91658 15.8074 4.91658 15.6041L4.91653 15.5957C4.91473 15.4588 4.86952 15.3261 4.78742 15.2166L1.88117 11.3416C1.7784 11.2046 1.6254 11.114 1.45584 11.0898C1.42558 11.0855 1.39506 11.0833 1.3645 11.0833L1.36229 11.0833C1.22331 11.0838 1.08819 11.1291 0.977002 11.2125C0.839973 11.3152 0.749383 11.4682 0.72516 11.6378C0.720838 11.668 0.718669 11.6986 0.718669 11.7291L0.718672 11.7313C0.719149 11.8703 0.764447 12.0054 0.847835 12.1166L3.75392 15.9914Z" fill="#002357"/>
<path d="M0.847835 15.2166C0.763992 15.3284 0.718669 15.4644 0.718669 15.6041L0.718694 15.6098C0.718946 15.6385 0.721106 15.6671 0.72516 15.6955C0.749383 15.865 0.839973 16.018 0.977002 16.1208C1.08879 16.2046 1.22476 16.25 1.3645 16.25L1.37019 16.2499C1.39885 16.2497 1.42746 16.2475 1.45584 16.2435C1.6254 16.2192 1.7784 16.1287 1.88117 15.9916L4.78742 12.1166C4.87126 12.0048 4.91658 11.8689 4.91658 11.7291L4.91656 11.7234C4.91631 11.6948 4.91415 11.6662 4.91009 11.6378C4.88587 11.4682 4.79528 11.3152 4.65825 11.2125C4.54646 11.1286 4.41049 11.0833 4.27075 11.0833L4.26507 11.0833C4.2364 11.0836 4.20779 11.0857 4.17942 11.0898C4.00985 11.114 3.85686 11.2046 3.75409 11.3416L0.847835 15.2166Z" fill="#002357"/>
<path d="M12.5841 12.2942C13.0429 12.2954 13.4107 12.5697 13.4107 12.5697C13.5222 12.6529 13.6576 12.6979 13.7968 12.6979C13.8056 12.6979 13.8145 12.6977 13.8233 12.6973C14.0177 12.6893 14.1982 12.5941 14.3145 12.4382C14.3977 12.3266 14.4426 12.1912 14.4426 12.052L14.4426 12.0446C14.4423 12.016 14.44 11.9874 14.4359 11.959C14.4112 11.7895 14.3202 11.6368 14.1829 11.5343C13.4731 11.0049 12.5876 11.0026 12.5876 11.0026C11.7987 11.0026 11.2876 11.4406 11.2876 11.4406C10.7291 11.9193 10.7291 12.6979 10.7291 12.6979C10.7291 13.4669 11.4423 13.8815 11.4423 13.8815C11.7531 14.0621 12.4697 14.2523 12.4697 14.2523C13.3124 14.4759 13.3124 14.6354 13.3124 14.6354C13.3124 14.8446 13.1964 14.9189 13.1964 14.9189C13.0087 15.039 12.5859 15.039 12.5859 15.039C12.129 15.0378 11.7615 14.7638 11.7615 14.7638C11.6499 14.6806 11.5141 14.6354 11.3749 14.6354C11.3661 14.6354 11.3572 14.6356 11.3484 14.6359C11.154 14.6439 10.9736 14.7391 10.8572 14.8951C10.774 15.0066 10.7291 15.142 10.7291 15.2812L10.7291 15.2886C10.7295 15.3173 10.7317 15.3459 10.7358 15.3742C10.7605 15.5437 10.8515 15.6965 10.9888 15.7989C11.6985 16.328 12.5859 16.3307 12.5859 16.3307C13.3866 16.3307 13.8927 16.0068 13.8927 16.0068C14.6041 15.5515 14.6041 14.6354 14.6041 14.6354C14.6041 13.831 13.8731 13.3959 13.8731 13.3959C13.5469 13.2018 12.801 13.0038 12.801 13.0038C12.0208 12.7968 12.0208 12.6979 12.0208 12.6979C12.0208 12.2942 12.5841 12.2942 12.5841 12.2942Z" fill="#002357"/>
<path d="M13.3124 5.53831V8.49996C13.3124 8.85664 13.6016 9.14579 13.9583 9.14579C14.3149 9.14579 14.6041 8.85664 14.6041 8.49996V5.27079C14.6041 5.09951 14.536 4.93524 14.4149 4.81412L9.89409 0.293286C9.77297 0.172169 9.6087 0.104126 9.43742 0.104126L1.68742 0.104126C1.15239 0.104126 0.774072 0.482447 0.774072 0.482447C0.395752 0.860767 0.395752 1.39579 0.395752 1.39579V8.49996C0.395752 8.85664 0.684901 9.14579 1.04159 9.14579C1.39827 9.14579 1.68742 8.85664 1.68742 8.49996V1.39579H9.16991L13.3124 5.53831Z" fill="#002357"/>
<path d="M9.43742 5.91663H13.9583C14.3149 5.91663 14.6041 5.62748 14.6041 5.27079C14.6041 4.91411 14.3149 4.62496 13.9583 4.62496H10.0833V0.749959C10.0833 0.393275 9.7941 0.104126 9.43742 0.104126C9.08073 0.104126 8.79158 0.393275 8.79158 0.749959V5.27079C8.79158 5.62748 9.08073 5.91663 9.43742 5.91663Z" fill="#002357"/>
</svg>
